PathFileType	4	(X/Y/Z)	c:/Users/goper/Files/vsCode/490R/osim_files/A04/A04_Fast_02.trc
DataRate	CameraRate	NumFrames	NumMarkers	Units                	OrigDataRate	OrigDataStartFrame	OrigNumFrames
120.00	120.00	7	36	mm	120.0	1055	1406
                Frame#	Time	LPSIS			LASIS			LTH1			LTH2			LTH3			LTH4			LLFE			LMFE			LSH1			LSH2			LSH3			LSH4			LLMAL			LMMAL			LCAL			LMTP5			LTOE			LMTP1			RPSIS			RASIS			RTH1			RTH2			RTH3			RTH4			RLFE			RMFE			RSH1			RSH2			RSH3			RSH4			RLMAL			RMMAL			RCAL			RMTP1			RTOE			RMTP5		
		X1	Y1	Z1	X2	Y2	Z2	X3	Y3	Z3	X4	Y4	Z4	X5	Y5	Z5	X6	Y6	Z6	X7	Y7	Z7	X8	Y8	Z8	X9	Y9	Z9	X10	Y10	Z10	X11	Y11	Z11	X12	Y12	Z12	X13	Y13	Z13	X14	Y14	Z14	X15	Y15	Z15	X16	Y16	Z16	X17	Y17	Z17	X18	Y18	Z18	X19	Y19	Z19	X20	Y20	Z20	X21	Y21	Z21	X22	Y22	Z22	X23	Y23	Z23	X24	Y24	Z24	X25	Y25	Z25	X26	Y26	Z26	X27	Y27	Z27	X28	Y28	Z28	X29	Y29	Z29	X30	Y30	Z30	X31	Y31	Z31	X32	Y32	Z32	X33	Y33	Z33	X34	Y34	Z34	X35	Y35	Z35	X36	Y36	Z36

1055	8.78333	-2317.20337	1037.06372	310.05225	-2542.55786	988.27753	382.21478	-2540.48242	674.66266	392.61783	-2560.31421	633.76471	389.57523	-2596.79126	697.19525	391.23248	-2610.13135	654.98193	389.73505	-2625.37793	513.19318	374.13016	-2658.99609	530.84167	239.66870	-2645.66187	407.50662	371.57666	-2673.01050	373.90582	370.94327	-2699.87476	440.66919	369.89194	-2718.50586	401.07693	368.32419	-2796.84570	119.31904	326.83694	-2831.08374	136.12033	247.85152	-2774.14136	56.96142	261.57495	-2936.18604	137.85255	391.96964	-2981.34814	177.21721	340.33530	-2983.21729	158.48277	294.78043	-2310.39941	1028.03918	203.80357	0.00000	0.00000	0.00000	-2323.43091	729.56476	77.08542	-2317.33203	687.27539	81.54148	-2383.12988	713.34235	67.24894	-2367.95361	669.18262	75.31546	-2320.22192	538.78033	104.37847	-2340.04785	534.29456	220.73830	-2191.14258	357.70148	124.98874	-2182.66260	311.18893	133.28935	-2248.75439	337.25931	114.13161	-2228.95068	294.83426	119.35699	-2145.77759	119.32920	131.73444	-2186.24463	124.05945	260.02914	-2077.20581	85.10448	216.55539	-2299.27710	54.12241	230.03812	-2317.74194	74.85092	180.57088	-2276.01294	52.30088	110.26653
1056	8.79167	-2328.66943	1035.50757	310.82373	-2554.37451	986.69012	382.41821	-2552.85962	673.38544	391.87955	-2572.42139	632.39099	388.66046	-2609.18726	695.68335	390.35132	-2621.84009	653.22461	388.32455	-2636.50293	511.90869	373.18311	-2668.06885	528.63617	238.32173	-2655.43140	405.89029	370.76260	-2682.37891	372.15308	369.80966	-2709.93286	438.42593	368.19888	-2728.01831	398.71268	366.65146	-2803.54565	118.48586	324.17816	-2837.05713	132.53413	244.71883	-2776.28125	56.87472	260.52454	-2944.40796	131.13351	387.39627	-2990.19653	167.65010	334.93674	-2990.69092	147.62329	289.13715	-2321.61792	1026.14978	204.57507	0.00000	0.00000	0.00000	-2331.80859	728.83777	77.07300	-2325.97754	686.40784	81.73368	-2391.83325	711.87006	67.32954	-2376.26636	667.77118	75.39338	-2327.67334	537.68799	104.39500	-2347.47656	533.15741	220.84004	-2195.99463	358.47723	124.94901	-2186.70581	312.11334	133.29002	-2253.53174	337.34692	114.19205	-2232.00708	295.25873	119.04813	-2147.12573	120.72422	131.72577	-2187.55298	124.92127	259.97882	-2078.02173	87.00891	216.49666	-2299.49268	53.47792	230.40305	-2317.99902	74.65188	180.53995	-2276.29492	52.19971	110.17175
1057	8.80000	-2340.44385	1033.80066	311.54303	-2566.41943	985.16064	382.73557	-2565.35547	672.32416	391.61081	-2584.59912	631.12036	388.09604	-2621.70728	694.36383	389.51434	-2634.76636	652.17358	388.29321	-2647.96533	510.89896	373.08994	-2676.55005	526.40662	237.41814	-2665.43994	404.63522	370.94431	-2691.75366	370.50461	369.41833	-2720.11011	436.29968	366.86816	-2737.65845	396.64337	365.35077	-2809.66138	118.01725	321.81903	-2841.12842	129.07489	241.51906	-2777.62524	57.37785	259.90936	-2952.99951	122.45285	381.78064	-3000.80444	153.97353	327.21378	-2997.04443	133.95245	282.33093	-2332.92212	1024.17419	205.39392	0.00000	0.00000	0.00000	-2341.43237	727.64557	77.53230	-2334.00684	685.63519	81.91027	-2400.88940	710.26135	67.43984	-2384.45264	666.39679	75.41774	-2335.25488	536.53162	104.44966	-2355.25513	531.85895	220.92177	-2200.96924	359.20233	124.99908	-2191.11646	313.02136	133.25926	-2258.34473	337.29776	114.23422	-2237.06030	295.07831	119.40792	-2148.57153	122.18270	131.70581	-2188.96436	125.77010	259.95941	-2078.90845	89.03526	216.46107	-2299.61133	53.15262	230.51868	-2318.27539	74.34589	180.57971	-2276.53882	52.12746	110.08170
1058	8.80833	-2352.11694	1032.20911	312.34491	-2578.85522	983.67664	383.08151	-2578.24878	670.90845	392.69843	-2597.17358	629.76593	388.56769	-2634.44336	693.22626	388.76028	-2647.19189	650.77045	387.39267	-2659.05737	509.79922	373.43240	-2684.23706	524.00183	236.96404	-2675.38940	403.38358	371.74890	-2701.36011	368.88251	369.64655	-2730.40234	434.48856	366.03967	-2747.14404	394.77100	363.41095	-2816.95654	116.03156	322.03516	-2847.44312	125.61681	240.45779	-2780.06396	58.15536	260.60406	-2962.17456	112.81978	377.25677	-3010.01147	141.37791	320.89316	-3003.94995	122.15929	275.98938	-2343.92163	1022.22034	206.21318	0.00000	0.00000	0.00000	-2351.45557	726.15326	77.79379	-2343.18994	684.38611	82.14806	-2410.73975	708.48096	67.98518	-2393.47534	664.79846	75.66144	-2343.67749	535.30804	104.77154	-2363.34082	530.21680	221.01888	-2206.27173	359.79001	125.13876	-2195.70386	313.91315	133.31825	-2263.37305	337.22867	114.31487	-2241.42090	295.21368	119.52279	-2150.10986	124.09385	131.63045	-2190.50635	126.59200	259.98874	-2079.82251	91.19744	216.47601	-2299.30420	52.50971	230.37531	-2318.54102	74.04880	180.61327	-2276.72778	52.04586	110.01582
1059	8.81667	-2363.69434	1030.72229	312.99078	-2591.66309	982.26245	383.44199	-2590.76099	669.65656	393.12143	-2609.61621	628.61865	389.10297	-2647.15527	692.28210	388.66040	0.00000	0.00000	0.00000	-2670.17358	509.31238	374.31808	-2691.68237	521.97638	237.12927	-2685.45166	402.60660	373.21561	-2711.12354	367.91309	370.77185	-2740.51099	433.30176	366.07376	-2756.98389	393.36505	363.13498	-2824.36914	113.89306	323.56830	-2851.56885	124.14926	240.60651	-2783.06274	59.36728	262.72748	-2971.42822	104.62309	372.96121	-3018.33008	132.24017	315.36755	-3009.69165	113.72546	270.24725	-2355.99561	1020.06879	207.06702	0.00000	0.00000	0.00000	-2360.66650	724.84662	78.31578	-2353.51196	682.62793	82.70730	-2420.16919	706.62122	68.17268	-2401.89941	663.09839	75.63035	-2351.56226	533.79266	104.71272	-2372.05322	528.48077	221.20642	-2211.87793	360.53925	125.31086	-2200.46069	314.79202	133.47168	-2268.81274	337.19922	114.54388	-2245.98560	295.32889	119.67605	-2151.78931	125.50701	131.81540	-2192.16138	127.51854	260.03488	-2080.73901	93.52383	216.54889	-2300.03076	52.54811	230.81966	-2318.86963	73.70717	180.69054	-2276.97656	51.98631	109.96283
1060	8.82500	-2376.00146	1028.82080	313.84390	-2605.29126	981.15649	383.78412	-2603.90356	668.41785	395.05212	-2621.24463	627.57892	390.45978	-2659.13135	690.65833	387.45105	-2671.77222	648.17877	386.48743	-2680.90771	509.96762	375.91577	-2699.19678	521.62054	238.21788	-2694.56812	402.78137	375.03598	-2720.02197	368.09665	372.14215	-2750.16406	432.98743	365.98022	-2765.90112	393.00052	363.47604	-2828.79468	112.63158	323.80276	-2853.98584	122.56712	240.33455	-2784.97412	59.93903	263.70255	-2976.49707	99.79264	370.09448	-3022.65088	126.72591	311.53506	-3014.80225	108.41454	266.91943	-2367.65308	1018.03229	208.01321	0.00000	0.00000	0.00000	-2368.90942	723.78204	78.37912	-2363.28955	681.06683	83.08015	-2429.86377	704.69409	68.28159	-2412.66431	661.24835	76.22968	-2360.52686	532.47607	104.85208	-2381.25928	526.83868	221.36519	-2217.98975	361.25516	125.57811	-2205.79297	315.69785	133.73711	-2274.45532	337.06207	114.76043	-2250.79688	295.38144	119.86827	-2153.59888	127.33595	131.96671	-2194.12915	128.56738	260.19781	-2081.86597	96.02461	216.62001	-2300.70117	52.80489	231.28767	-2319.27344	73.41738	180.74632	-2277.17920	51.93794	109.87302
1061	8.83333	-2388.86621	1026.76782	314.75885	-2618.75659	979.81683	383.69919	-2615.40112	667.28546	395.90106	-2633.36279	626.70032	391.48773	-2670.64014	689.52161	387.44565	-2683.00659	646.99854	386.47888	-2690.36719	511.61292	377.98853	-2707.64233	523.12585	240.20987	-2702.91895	404.80060	377.80023	-2726.66992	369.10553	373.51257	-2758.18530	433.39139	367.29257	-2773.43726	393.19272	364.78098	-2830.58008	112.19959	323.27866	-2856.04907	121.11987	239.69756	-2785.23071	60.10416	263.73956	-2974.86230	96.90128	368.71652	-3024.60645	123.30089	309.28952	-3016.11182	104.74711	264.93152	-2379.38696	1016.01233	208.80606	0.00000	0.00000	0.00000	-2378.92041	722.32037	78.98782	-2372.63965	679.63483	83.55463	-2439.68555	702.98907	68.41631	-2422.19678	659.53320	76.22958	-2369.87476	530.73352	104.85346	-2391.04614	524.98615	221.36110	-2224.44604	362.07886	125.83358	-2211.45410	316.78281	134.05026	-2280.72461	336.87488	114.99859	-2256.00610	295.48199	120.08924	-2155.61304	129.71761	132.14345	-2196.26416	129.78192	260.37994	-2083.28320	98.80889	216.95312	-2301.19946	52.59930	231.32672	-2319.71802	73.08546	180.67078	-2277.43628	51.89514	109.82820
